<?xml version="1.0" standalone="no"?>
<!DOCTYPE svg PUBLIC "-//W3C//DTD SVG 20010904//EN"
 "http://www.w3.org/TR/2001/REC-SVG-20010904/DTD/svg10.dtd">
<svg version="1.0" xmlns="http://www.w3.org/2000/svg"
 width="1024.000000pt" height="1024.000000pt" viewBox="0 0 1024.000000 1024.000000"
 preserveAspectRatio="xMidYMid meet">
<metadata>
Created by potrace 1.11, written by Peter Selinger 2001-2013
</metadata>
<g transform="translate(0.000000,1024.000000) scale(0.100000,-0.100000)"
fill="#000000" stroke="none">
<path d="M7330 8609 c-527 -405 -572 -438 -723 -538 -70 -47 -127 -90 -127
-97 0 -6 -7 -34 -15 -60 -22 -74 -97 -328 -99 -339 -2 -5 -12 -44 -25 -85 -55
-188 -72 -244 -111 -380 -78 -266 -254 -558 -354 -589 -31 -9 -214 -8 -271 2
-16 3 -70 9 -120 12 -49 4 -98 9 -108 11 -10 1 -55 6 -100 9 -45 3 -102 8
-127 10 -25 2 -97 7 -160 11 -63 4 -133 8 -155 10 -375 25 -1218 25 -1475 -1
-19 -1 -82 -6 -140 -10 -58 -4 -113 -9 -122 -10 -9 -2 -43 -6 -75 -9 -32 -4
-89 -11 -128 -16 -38 -5 -86 -12 -105 -14 -19 -3 -44 -7 -55 -9 -11 -3 -40 -8
-65 -11 -42 -6 -256 -50 -290 -60 -8 -2 -35 -9 -60 -16 -34 -9 -60 -28 -110
-79 -122 -124 -196 -312 -244 -621 -28 -177 -28 -783 -1 -985 2 -16 7 -60 10
-97 3 -37 7 -75 9 -85 2 -10 7 -43 10 -74 4 -31 9 -67 11 -80 3 -13 7 -42 10
-64 6 -47 15 -93 30 -160 8 -33 180 -642 196 -690 8 -25 29 -98 89 -295 5 -19
33 -111 61 -205 28 -93 66 -222 85 -285 20 -63 58 -189 85 -280 28 -91 69
-223 91 -295 22 -71 73 -238 113 -370 40 -132 86 -279 101 -327 l27 -88 705 0
704 0 -4 23 c-3 12 -22 78 -43 147 -21 69 -41 139 -45 155 -5 17 -21 73 -37
125 l-29 95 -289 80 -288 81 -39 119 c-21 66 -74 228 -117 360 -214 655 -291
892 -291 898 0 3 6 12 13 19 22 22 171 204 187 228 8 12 29 41 46 64 28 38 58
83 156 236 157 243 446 790 605 1144 25 56 55 124 68 151 12 28 44 100 70 160
26 61 55 128 65 150 10 22 21 51 25 64 23 77 42 -116 23 -244 -20 -132 -84
-338 -155 -495 -48 -105 -105 -227 -113 -240 -5 -8 -24 -44 -42 -80 -61 -123
-232 -415 -316 -540 l-23 -34 24 -12 c46 -24 349 -97 532 -128 53 -9 169 -28
195 -31 14 -2 39 -6 55 -9 56 -9 320 -45 415 -56 52 -6 111 -13 130 -16 19 -3
60 -7 90 -10 30 -2 69 -6 85 -9 17 -2 66 -7 110 -10 44 -3 87 -8 95 -10 8 -2
51 -7 95 -11 44 -3 91 -8 105 -10 14 -1 72 -6 130 -9 228 -14 359 -62 464
-170 59 -61 76 -92 66 -124 -5 -14 -11 -39 -14 -56 -5 -34 -54 -262 -61 -285
-2 -8 -7 -28 -10 -45 -2 -16 -7 -39 -9 -50 -61 -281 -89 -415 -88 -435 0 -14
5 -63 12 -110 6 -47 13 -96 14 -110 9 -74 23 -179 31 -220 2 -14 7 -50 10 -80
3 -30 8 -66 10 -80 2 -14 7 -45 10 -70 3 -25 10 -72 15 -105 5 -33 12 -83 15
-111 3 -28 7 -59 9 -70 2 -10 7 -48 12 -84 4 -36 9 -68 10 -72 1 -5 2 -21 3
-38 l1 -30 691 0 690 0 -6 23 c-4 12 -17 51 -30 87 -75 208 -145 409 -145 418
0 6 -5 14 -11 17 -16 11 -131 36 -136 31 -3 -3 -15 -1 -27 4 -12 4 -51 11 -86
14 -36 4 -92 11 -125 16 -33 5 -89 12 -125 16 -36 4 -74 8 -85 10 -11 1 -28 3
-39 3 -13 1 -16 6 -11 19 4 9 57 148 116 307 60 160 114 299 119 310 5 11 63
164 129 340 65 176 133 355 149 398 22 55 30 91 27 122 -2 33 1 45 11 45 21 0
17 9 -27 75 -124 186 -307 621 -385 920 -40 154 -96 436 -109 555 -2 19 -7 64
-11 100 -11 101 -13 141 -19 355 -3 110 -3 196 0 190 4 -8 23 -76 85 -300 20
-71 71 -249 105 -365 20 -69 38 -132 40 -140 8 -33 187 -605 230 -735 65 -192
124 -342 153 -389 l24 -39 62 141 63 141 27 -97 c41 -146 74 -224 117 -274 39
-46 74 -62 102 -47 9 6 17 33 22 76 8 79 12 110 30 243 3 19 7 51 9 70 5 37
10 62 27 146 5 28 12 62 14 76 6 33 35 101 40 96 3 -2 7 -20 9 -39 3 -19 11
-72 20 -119 29 -170 43 -283 39 -334 -2 -35 -1 -37 11 -20 14 22 83 140 117
201 13 23 61 106 105 185 444 780 752 1375 809 1564 l13 43 -87 37 c-232 99
-491 245 -635 358 -69 54 -166 159 -195 211 -28 50 -57 143 -47 153 3 2 47
-36 98 -86 145 -140 274 -244 433 -348 89 -57 293 -164 314 -164 6 0 19 -4 29
-10 9 -5 49 -18 87 -29 244 -69 493 -38 670 85 140 96 287 276 402 491 l54
102 -86 40 c-187 88 -318 210 -377 352 -17 43 -22 76 -23 161 -2 102 -4 110
-39 180 -66 129 -63 124 -148 238 -56 75 -103 123 -162 166 -26 19 -28 23 -15
35 8 8 52 48 99 89 46 41 112 101 145 132 60 58 60 58 30 58 -177 5 -535 85
-535 121 0 4 24 10 53 14 28 4 61 9 72 11 10 2 37 6 60 9 22 3 51 8 65 10 25
4 60 9 158 20 29 4 81 7 117 7 36 1 65 3 65 6 0 3 -6 13 -13 21 -13 16 -88
125 -285 416 -52 77 -101 145 -108 151 -8 7 -37 8 -81 3 -37 -4 -97 -10 -133
-13 -106 -10 -183 -17 -215 -21 -186 -24 -239 -22 -445 10 -14 2 -63 9 -110
15 -47 7 -94 13 -105 15 -11 2 -45 6 -75 10 -30 4 -66 8 -80 11 -14 2 -61 8
-105 14 -44 6 -91 13 -105 15 -14 2 -47 6 -75 9 l-50 6 -405 -311z m1029 -454
c17 -8 70 -54 118 -101 l88 -87 -60 31 c-183 92 -307 71 -366 -62 -10 -23 -26
-99 -35 -169 l-17 -127 -23 33 c-62 92 -81 210 -53 330 18 75 112 157 204 177
37 8 104 -4 144 -25z m941 -851 c52 -30 129 -96 131 -112 0 -4 2 -15 4 -24 8
-42 -56 -78 -99 -57 -55 28 -126 143 -126 206 0 38 4 37 90 -13z"/>
<path d="M2035 6375 c-97 -16 -251 -50 -291 -65 -16 -6 -31 -11 -34 -11 -16 1
-162 -49 -265 -90 -383 -153 -689 -380 -885 -657 -63 -88 -180 -303 -180 -330
0 -7 -9 -31 -19 -55 -23 -51 -109 -316 -145 -447 -54 -199 -70 -283 -81 -418
-4 -47 -15 -85 -45 -145 -60 -121 -84 -227 -84 -372 -1 -129 4 -179 28 -290
12 -57 44 -142 73 -195 56 -105 122 -212 153 -250 28 -34 29 -35 44 -15 29 38
94 180 120 261 53 173 75 389 49 493 -24 94 -64 203 -102 275 -38 74 -129 176
-155 176 -19 0 -19 -1 -2 69 8 31 17 67 20 81 2 14 16 68 31 120 14 52 28 102
29 110 24 102 175 485 221 560 12 19 25 43 28 54 4 10 41 69 82 131 82 123
212 261 302 321 52 35 241 128 391 193 89 39 265 107 285 110 4 0 22 7 40 14
26 11 135 39 242 63 11 2 40 34 65 72 24 37 68 99 96 137 45 63 80 117 72 114
-2 -1 -39 -7 -83 -14z"/>
<path d="M1761 3633 c-90 -219 -169 -411 -177 -428 -7 -16 -51 -122 -97 -235
-47 -113 -103 -249 -126 -303 -36 -89 -40 -105 -36 -165 7 -103 15 -212 20
-262 3 -25 7 -76 10 -115 3 -38 7 -88 10 -110 2 -22 7 -69 10 -105 3 -36 7
-76 9 -90 2 -14 7 -52 11 -85 15 -136 17 -149 45 -283 21 -99 34 -131 53 -133
43 -3 1298 -1 1301 2 2 2 -2 22 -9 44 -14 44 -95 331 -100 355 -7 34 -44 160
-49 169 -3 5 -32 12 -63 16 -32 5 -65 9 -73 10 -16 3 -31 5 -195 30 -60 8
-121 18 -135 20 -14 2 -47 7 -75 11 -66 8 -87 12 -92 18 -3 3 16 65 42 138 26
73 71 201 100 283 30 83 78 220 108 305 30 85 64 179 75 208 l20 52 -55 123
c-161 360 -272 633 -325 797 -16 52 -33 103 -37 113 -4 12 -59 -109 -170 -380z"/>
<path d="M7326 3032 c-66 -147 -132 -296 -149 -332 -16 -36 -35 -78 -42 -95
-8 -16 -34 -74 -59 -128 -35 -76 -43 -103 -36 -120 5 -12 25 -67 45 -122 20
-55 40 -103 44 -108 8 -8 23 -12 96 -21 163 -22 317 -83 345 -137 7 -11 23
-60 36 -108 29 -102 63 -216 74 -251 5 -14 19 -61 31 -105 12 -44 24 -82 27
-85 2 -3 219 -5 483 -6 430 0 479 1 475 15 -10 34 -118 400 -136 463 l-20 67
-128 40 c-70 21 -181 56 -247 77 -66 21 -123 37 -127 36 -8 -2 -20 28 -224
577 l-169 454 -93 78 c-51 44 -96 79 -100 79 -4 0 -61 -121 -126 -268z"/>
</g>
</svg>
